<?xml version="1.0" encoding="UTF-8" standalone="no"?>
<!DOCTYPE svg PUBLIC "-//W3C//DTD SVG 20010904//EN"
              "http://www.w3.org/TR/2001/REC-SVG-20010904/DTD/svg10.dtd">

<svg xmlns="http://www.w3.org/2000/svg"
     width="381.02mm" height="134.062mm"
     viewBox="0 0 4320 1520">
  <path id="Selection"
        fill="none" stroke="black" stroke-width="1"
        d="M 0.00,0.00
           C 0.00,0.00 0.00,1520.00 0.00,1520.00
             0.00,1520.00 4320.00,1520.00 4320.00,1520.00
             4320.00,1520.00 4320.00,0.00 4320.00,0.00
             4320.00,0.00 0.00,0.00 0.00,0.00 Z
           M 1069.00,882.00
           C 1069.00,882.00 1045.00,883.00 1045.00,883.00
             1045.00,883.00 1000.00,883.00 1000.00,883.00
             1000.00,883.00 897.00,883.00 897.00,883.00
             897.00,883.00 866.00,883.00 866.00,883.00
             866.00,883.00 848.00,882.00 848.00,882.00
             849.76,875.96 854.51,869.35 858.00,864.00
             858.00,864.00 873.19,840.00 873.19,840.00
             878.85,830.89 879.10,827.02 890.00,827.00
             890.00,827.00 959.00,827.00 959.00,827.00
             957.39,820.41 949.30,809.23 945.42,803.00
             945.42,803.00 913.00,751.00 913.00,751.00
             913.00,751.00 888.58,788.00 888.58,788.00
             888.58,788.00 849.19,850.00 849.19,850.00
             849.19,850.00 835.31,872.00 835.31,872.00
             835.31,872.00 827.79,881.83 827.79,881.83
             827.79,881.83 819.00,883.00 819.00,883.00
             819.00,883.00 778.00,883.00 778.00,883.00
             778.00,883.00 755.00,882.00 755.00,882.00
             757.87,874.49 765.73,863.12 770.31,856.00
             770.31,856.00 790.32,824.00 790.32,824.00
             790.32,824.00 860.58,712.00 860.58,712.00
             871.94,693.76 886.22,665.30 911.00,665.00
             914.74,664.96 919.44,664.78 923.00,665.79
             944.34,671.85 954.60,693.53 965.20,711.00
             965.20,711.00 1034.42,824.00 1034.42,824.00
             1034.42,824.00 1056.42,860.00 1056.42,860.00
             1060.46,866.51 1066.35,875.05 1069.00,882.00 Z
           M 2371.00,873.00
           C 2374.03,867.26 2373.00,860.34 2373.00,854.00
             2373.00,854.00 2373.00,816.00 2373.00,816.00
             2373.00,816.00 2373.00,675.00 2373.00,675.00
             2373.01,668.26 2372.51,666.14 2380.00,666.00
             2380.00,666.00 2424.00,666.00 2424.00,666.00
             2426.30,666.00 2430.41,665.62 2431.98,667.60
             2433.23,669.19 2433.00,673.01 2433.00,675.00
             2433.00,675.00 2433.00,701.00 2433.00,701.00
             2433.00,701.00 2433.00,818.00 2433.00,818.00
             2433.01,820.54 2432.68,824.48 2434.60,826.40
             2436.39,828.19 2439.65,827.98 2442.00,828.00
             2442.00,828.00 2467.00,828.00 2467.00,828.00
             2467.00,828.00 2578.00,828.00 2578.00,828.00
             2576.68,834.50 2572.19,839.68 2568.42,845.00
             2568.42,845.00 2550.42,871.00 2550.42,871.00
             2548.34,873.94 2544.73,880.17 2541.82,881.83
             2539.36,883.22 2535.77,883.00 2533.00,883.00
             2533.00,883.00 2274.00,883.00 2274.00,883.00
             2274.00,883.00 2194.00,883.00 2194.00,883.00
             2185.47,883.00 2161.77,883.92 2155.00,882.00
             2156.76,875.96 2161.51,869.35 2165.00,864.00
             2165.00,864.00 2180.19,840.00 2180.19,840.00
             2185.85,830.89 2186.10,827.02 2197.00,827.00
             2197.00,827.00 2266.00,827.00 2266.00,827.00
             2264.39,820.41 2256.30,809.23 2252.42,803.00
             2252.42,803.00 2220.00,751.00 2220.00,751.00
             2220.00,751.00 2195.58,788.00 2195.58,788.00
             2195.58,788.00 2156.19,850.00 2156.19,850.00
             2156.19,850.00 2142.31,872.00 2142.31,872.00
             2142.31,872.00 2134.79,881.83 2134.79,881.83
             2134.79,881.83 2126.00,883.00 2126.00,883.00
             2126.00,883.00 2085.00,883.00 2085.00,883.00
             2085.00,883.00 2062.00,882.00 2062.00,882.00
             2064.87,874.49 2072.73,863.12 2077.31,856.00
             2077.31,856.00 2097.32,824.00 2097.32,824.00
             2097.32,824.00 2167.58,712.00 2167.58,712.00
             2178.94,693.76 2193.22,665.30 2218.00,665.00
             2221.74,664.96 2226.44,664.78 2230.00,665.79
             2251.69,671.95 2261.97,694.30 2272.81,712.00
             2272.81,712.00 2333.42,811.00 2333.42,811.00
             2333.42,811.00 2371.00,873.00 2371.00,873.00 Z
           M 2891.00,882.00
           C 2891.00,882.00 2873.00,883.00 2873.00,883.00
             2873.00,883.00 2842.00,883.00 2842.00,883.00
             2842.00,883.00 2739.00,883.00 2739.00,883.00
             2739.00,883.00 2694.00,883.00 2694.00,883.00
             2694.00,883.00 2670.00,882.00 2670.00,882.00
             2671.76,875.96 2676.51,869.35 2680.00,864.00
             2680.00,864.00 2695.19,840.00 2695.19,840.00
             2700.85,830.89 2701.10,827.02 2712.00,827.00
             2712.00,827.00 2781.00,827.00 2781.00,827.00
             2779.39,820.41 2771.30,809.23 2767.42,803.00
             2767.42,803.00 2735.00,751.00 2735.00,751.00
             2735.00,751.00 2710.58,788.00 2710.58,788.00
             2710.58,788.00 2671.19,850.00 2671.19,850.00
             2671.19,850.00 2657.31,872.00 2657.31,872.00
             2657.31,872.00 2649.79,881.83 2649.79,881.83
             2649.79,881.83 2641.00,883.00 2641.00,883.00
             2641.00,883.00 2600.00,883.00 2600.00,883.00
             2600.00,883.00 2577.00,882.00 2577.00,882.00
             2579.87,874.49 2587.73,863.12 2592.31,856.00
             2592.31,856.00 2612.32,824.00 2612.32,824.00
             2612.32,824.00 2683.19,711.00 2683.19,711.00
             2694.38,692.96 2708.55,665.30 2733.00,665.00
             2733.00,665.00 2738.00,665.00 2738.00,665.00
             2762.65,665.30 2776.16,692.82 2787.20,711.00
             2787.20,711.00 2856.42,824.00 2856.42,824.00
             2856.42,824.00 2878.42,860.00 2878.42,860.00
             2881.97,865.72 2889.12,876.09 2891.00,882.00 Z
           M 3552.00,882.00
           C 3552.00,882.00 3528.00,883.00 3528.00,883.00
             3528.00,883.00 3483.00,883.00 3483.00,883.00
             3483.00,883.00 3380.00,883.00 3380.00,883.00
             3380.00,883.00 3349.00,883.00 3349.00,883.00
             3349.00,883.00 3331.00,882.00 3331.00,882.00
             3332.76,875.96 3337.51,869.35 3341.00,864.00
             3341.00,864.00 3356.19,840.00 3356.19,840.00
             3361.85,830.89 3362.10,827.02 3373.00,827.00
             3373.00,827.00 3442.00,827.00 3442.00,827.00
             3440.39,820.41 3432.30,809.23 3428.42,803.00
             3428.42,803.00 3396.00,751.00 3396.00,751.00
             3396.00,751.00 3371.58,788.00 3371.58,788.00
             3371.58,788.00 3332.19,850.00 3332.19,850.00
             3332.19,850.00 3318.31,872.00 3318.31,872.00
             3318.31,872.00 3310.79,881.83 3310.79,881.83
             3310.79,881.83 3302.00,883.00 3302.00,883.00
             3302.00,883.00 3261.00,883.00 3261.00,883.00
             3261.00,883.00 3238.00,882.00 3238.00,882.00
             3240.87,874.49 3248.73,863.12 3253.31,856.00
             3253.31,856.00 3273.32,824.00 3273.32,824.00
             3273.32,824.00 3343.58,712.00 3343.58,712.00
             3354.94,693.76 3369.22,665.30 3394.00,665.00
             3397.74,664.96 3402.44,664.78 3406.00,665.79
             3427.34,671.85 3437.60,693.53 3448.20,711.00
             3448.20,711.00 3517.42,824.00 3517.42,824.00
             3517.42,824.00 3539.42,860.00 3539.42,860.00
             3543.46,866.51 3549.35,875.05 3552.00,882.00 Z
           M 1083.31,666.60
           C 1087.90,665.49 1095.08,666.00 1100.00,666.00
             1100.00,666.00 1131.00,666.00 1131.00,666.00
             1132.99,666.00 1136.81,665.77 1138.40,667.02
             1140.10,668.37 1139.96,671.05 1140.00,673.00
             1140.00,673.00 1140.00,693.00 1140.00,693.00
             1140.00,693.00 1140.00,782.00 1140.00,782.00
             1140.01,787.14 1140.59,794.09 1142.04,799.00
             1152.02,832.80 1194.36,827.04 1222.00,827.00
             1237.37,826.98 1255.99,823.13 1264.52,809.00
             1272.01,796.60 1270.00,779.11 1270.00,765.00
             1270.00,765.00 1270.00,675.00 1270.00,675.00
             1270.01,668.26 1269.51,666.14 1277.00,666.00
             1277.00,666.00 1321.00,666.00 1321.00,666.00
             1323.30,666.00 1327.41,665.62 1328.98,667.60
             1330.15,669.08 1329.99,672.18 1330.00,674.00
             1330.00,674.00 1330.00,696.00 1330.00,696.00
             1330.00,696.00 1330.00,792.00 1330.00,792.00
             1329.99,801.19 1328.04,812.19 1325.41,821.00
             1323.41,827.70 1319.68,836.13 1315.91,842.00
             1300.26,866.40 1272.55,877.33 1245.00,881.27
             1239.01,882.13 1233.06,882.99 1227.00,883.00
             1227.00,883.00 1182.00,883.00 1182.00,883.00
             1162.29,882.77 1133.37,875.26 1117.00,864.25
             1112.16,861.00 1106.68,856.21 1102.73,851.91
             1088.62,836.55 1081.03,813.74 1081.00,793.00
             1081.00,793.00 1081.00,776.00 1081.00,776.00
             1081.00,776.00 1081.00,744.00 1081.00,744.00
             1081.00,744.00 1081.00,687.00 1081.00,687.00
             1081.00,683.81 1080.60,670.35 1081.60,668.31
             1082.34,666.80 1082.56,667.24 1083.31,666.60 Z
           M 1593.00,667.00
           C 1588.98,675.99 1572.82,698.26 1566.33,708.00
             1560.22,717.17 1559.65,721.98 1548.00,722.00
             1548.00,722.00 1431.00,722.00 1431.00,722.00
             1425.21,722.01 1414.04,721.82 1412.47,729.02
             1410.32,738.90 1424.81,738.99 1431.00,739.00
             1431.00,739.00 1476.00,739.00 1476.00,739.00
             1476.00,739.00 1526.00,739.00 1526.00,739.00
             1549.09,739.04 1574.40,751.00 1587.79,770.00
             1591.65,775.47 1594.83,781.59 1596.80,788.00
             1599.99,798.40 1600.12,805.35 1600.00,816.00
             1599.56,853.40 1564.21,882.57 1528.00,883.00
             1528.00,883.00 1412.00,883.00 1412.00,883.00
             1412.00,883.00 1369.00,883.00 1369.00,883.00
             1362.39,883.00 1352.06,883.72 1346.00,882.00
             1347.82,876.30 1351.70,871.93 1355.00,867.00
             1355.00,867.00 1373.58,840.00 1373.58,840.00
             1375.66,837.06 1379.27,830.83 1382.18,829.17
             1384.64,827.78 1388.23,828.00 1391.00,828.00
             1391.00,828.00 1509.00,828.00 1509.00,828.00
             1512.58,827.99 1522.76,827.22 1526.00,826.47
             1533.13,824.82 1544.04,818.49 1543.48,810.00
             1542.52,795.55 1519.70,794.02 1509.00,794.00
             1509.00,794.00 1414.00,794.00 1414.00,794.00
             1391.60,793.97 1367.07,782.65 1354.22,764.00
             1348.54,755.76 1345.12,745.01 1345.00,735.00
             1344.73,711.64 1349.06,695.63 1369.00,680.92
             1392.32,663.72 1413.05,666.00 1440.00,666.00
             1440.00,666.00 1534.00,666.00 1534.00,666.00
             1534.00,666.00 1572.00,666.00 1572.00,666.00
             1578.38,666.00 1587.03,665.30 1593.00,667.00 Z
           M 2056.00,882.86
           C 2056.00,882.86 1980.00,882.86 1980.00,882.86
             1978.00,883.00 1974.87,883.08 1973.00,882.86
             1967.81,881.16 1958.95,871.95 1955.00,868.00
             1955.00,868.00 1928.00,842.00 1928.00,842.00
             1919.46,833.46 1917.42,828.02 1905.00,828.00
             1905.00,828.00 1845.00,828.00 1845.00,828.00
             1842.09,828.01 1837.86,827.55 1836.02,830.31
             1834.55,832.53 1835.00,840.10 1835.00,843.00
             1835.00,843.00 1835.00,875.00 1835.00,875.00
             1834.96,881.43 1834.84,882.87 1828.00,883.00
             1828.00,883.00 1784.00,883.00 1784.00,883.00
             1782.01,883.00 1778.19,883.23 1776.60,881.98
             1774.90,880.63 1775.04,877.95 1775.00,876.00
             1775.00,876.00 1775.00,859.00 1775.00,859.00
             1775.00,859.00 1775.00,781.00 1775.00,781.00
             1775.00,778.70 1774.62,774.59 1776.60,773.02
             1778.19,771.77 1782.01,772.00 1784.00,772.00
             1784.00,772.00 1811.00,772.00 1811.00,772.00
             1811.00,772.00 1929.00,772.00 1929.00,772.00
             1929.00,772.00 1940.00,771.17 1940.00,771.17
             1949.37,770.27 1956.82,770.55 1965.00,764.45
             1979.36,753.73 1977.95,735.16 1962.00,726.99
             1954.43,723.12 1937.70,722.01 1929.00,722.00
             1929.00,722.00 1748.00,722.00 1748.00,722.00
             1745.46,722.01 1741.52,721.68 1739.60,723.60
             1737.81,725.39 1738.02,728.65 1738.00,731.00
             1738.00,731.00 1738.00,757.00 1738.00,757.00
             1738.00,757.00 1738.00,874.00 1738.00,874.00
             1737.99,880.74 1738.49,882.86 1731.00,883.00
             1731.00,883.00 1687.00,883.00 1687.00,883.00
             1684.70,883.00 1680.59,883.38 1679.02,881.40
             1677.77,879.81 1678.00,875.99 1678.00,874.00
             1678.00,874.00 1678.00,848.00 1678.00,848.00
             1678.00,848.00 1678.00,732.00 1678.00,732.00
             1678.00,729.81 1678.21,726.16 1676.98,724.31
             1674.63,720.80 1662.17,722.00 1658.00,722.00
             1658.00,722.00 1622.00,722.00 1622.00,722.00
             1615.62,722.00 1606.97,722.70 1601.00,721.00
             1604.99,712.06 1620.67,690.15 1626.98,681.00
             1636.93,666.56 1634.99,666.02 1646.00,666.00
             1646.00,666.00 1945.00,666.00 1945.00,666.00
             1977.50,666.05 2015.64,682.06 2029.69,713.00
             2036.63,728.27 2036.19,738.86 2036.00,755.00
             2035.79,772.62 2026.33,789.90 2014.00,801.99
             2008.63,807.24 2004.33,810.24 1998.01,814.14
             1996.26,815.22 1993.25,816.60 1993.62,819.10
             1994.14,822.64 2005.92,832.22 2009.00,835.09
             2009.00,835.09 2043.00,867.99 2043.00,867.99
             2047.97,872.84 2053.98,876.11 2056.00,882.86 Z
           M 3142.00,667.00
           C 3137.98,675.99 3121.82,698.26 3115.33,708.00
             3109.22,717.17 3108.65,721.98 3097.00,722.00
             3097.00,722.00 2980.00,722.00 2980.00,722.00
             2974.21,722.01 2963.04,721.82 2961.47,729.02
             2959.32,738.90 2973.81,738.99 2980.00,739.00
             2980.00,739.00 3025.00,739.00 3025.00,739.00
             3025.00,739.00 3075.00,739.00 3075.00,739.00
             3098.09,739.04 3123.40,751.00 3136.79,770.00
             3140.65,775.47 3143.83,781.59 3145.80,788.00
             3148.99,798.40 3149.12,805.35 3149.00,816.00
             3148.56,853.40 3113.21,882.57 3077.00,883.00
             3077.00,883.00 2961.00,883.00 2961.00,883.00
             2961.00,883.00 2918.00,883.00 2918.00,883.00
             2911.39,883.00 2901.06,883.72 2895.00,882.00
             2896.82,876.30 2900.70,871.93 2904.00,867.00
             2904.00,867.00 2922.58,840.00 2922.58,840.00
             2924.66,837.06 2928.27,830.83 2931.18,829.17
             2933.64,827.78 2937.23,828.00 2940.00,828.00
             2940.00,828.00 3058.00,828.00 3058.00,828.00
             3061.58,827.99 3071.76,827.22 3075.00,826.47
             3082.13,824.82 3093.04,818.49 3092.48,810.00
             3091.52,795.55 3068.70,794.02 3058.00,794.00
             3058.00,794.00 2963.00,794.00 2963.00,794.00
             2940.60,793.97 2916.07,782.65 2903.22,764.00
             2897.54,755.76 2894.12,745.01 2894.00,735.00
             2893.73,711.64 2898.06,695.63 2918.00,680.92
             2941.32,663.72 2962.05,666.00 2989.00,666.00
             2989.00,666.00 3083.00,666.00 3083.00,666.00
             3083.00,666.00 3121.00,666.00 3121.00,666.00
             3127.38,666.00 3136.03,665.30 3142.00,667.00 Z
           M 3169.31,666.60
           C 3173.97,665.47 3181.94,666.00 3187.00,666.00
             3187.00,666.00 3218.00,666.00 3218.00,666.00
             3220.30,666.00 3224.41,665.62 3225.98,667.60
             3227.48,669.49 3227.00,677.34 3227.00,680.00
             3227.00,680.00 3227.00,714.00 3227.00,714.00
             3227.00,714.00 3227.00,874.00 3227.00,874.00
             3226.99,880.74 3227.49,882.86 3220.00,883.00
             3220.00,883.00 3176.00,883.00 3176.00,883.00
             3173.70,883.00 3169.59,883.38 3168.02,881.40
             3166.52,879.51 3167.00,871.66 3167.00,869.00
             3167.00,869.00 3167.00,838.00 3167.00,838.00
             3167.00,838.00 3167.00,710.00 3167.00,710.00
             3167.00,710.00 3167.00,675.00 3167.00,675.00
             3167.01,671.28 3166.32,669.12 3169.31,666.60 Z
           M 3174.00,918.29
           C 3191.07,916.67 3209.12,917.93 3222.99,929.02
             3227.45,932.59 3238.31,942.69 3231.84,948.37
             3229.44,950.47 3213.97,958.78 3211.09,958.48
             3207.99,958.15 3203.66,952.52 3201.00,950.33
             3195.22,945.56 3191.25,944.84 3184.00,945.01
             3162.57,945.53 3152.69,969.98 3160.09,988.00
             3165.68,1001.61 3183.42,1009.96 3197.00,1002.59
             3203.25,999.19 3206.79,992.71 3210.17,991.70
             3213.77,990.63 3226.55,998.38 3229.98,1000.62
             3231.67,1001.72 3233.65,1002.93 3234.01,1005.10
             3234.71,1009.31 3227.86,1016.79 3224.91,1019.38
             3210.58,1032.01 3196.86,1032.21 3179.00,1032.00
             3143.28,1031.58 3120.08,1000.12 3124.87,966.00
             3125.99,958.04 3128.20,950.89 3132.47,944.00
             3141.91,928.74 3156.80,921.14 3174.00,918.29 Z
           M 3293.00,918.29
           C 3313.83,916.31 3334.45,919.55 3349.56,935.29
             3358.05,944.12 3363.85,956.65 3364.00,969.00
             3364.00,969.00 3364.00,981.00 3364.00,981.00
             3363.78,999.30 3351.81,1016.49 3336.00,1025.10
             3323.04,1032.15 3312.16,1032.16 3298.00,1032.00
             3262.15,1031.58 3239.06,1000.26 3243.87,966.00
             3244.99,958.00 3247.20,950.93 3251.47,944.00
             3261.06,928.42 3275.51,921.18 3293.00,918.29 Z
           M 3485.00,934.00
           C 3492.95,927.11 3496.79,923.46 3507.00,920.09
             3511.29,918.67 3515.49,918.06 3520.00,918.15
             3520.00,918.15 3535.00,918.15 3535.00,918.15
             3550.30,920.28 3561.69,929.45 3566.91,944.00
             3568.75,949.12 3569.93,955.56 3570.00,961.00
             3570.00,961.00 3570.00,1021.00 3570.00,1021.00
             3570.00,1022.99 3570.23,1026.81 3568.98,1028.40
             3567.63,1030.10 3564.95,1029.96 3563.00,1030.00
             3563.00,1030.00 3546.00,1030.00 3546.00,1030.00
             3539.57,1029.96 3538.13,1029.84 3538.00,1023.00
             3538.00,1023.00 3538.00,980.00 3538.00,980.00
             3537.99,973.54 3537.13,961.51 3533.92,956.00
             3526.05,942.51 3508.51,943.51 3499.39,955.00
             3494.17,961.59 3493.10,972.77 3493.00,981.00
             3493.00,981.00 3493.00,1014.00 3493.00,1014.00
             3493.00,1016.62 3493.32,1025.82 3492.40,1027.69
             3491.08,1030.37 3487.52,1029.98 3485.00,1030.00
             3485.00,1030.00 3470.00,1030.00 3470.00,1030.00
             3463.26,1029.99 3461.14,1030.49 3461.00,1023.00
             3461.00,1023.00 3461.00,975.00 3461.00,975.00
             3460.97,969.22 3460.18,962.25 3457.67,957.00
             3451.19,943.43 3434.19,943.04 3424.47,953.30
             3418.80,959.28 3417.10,969.01 3417.00,977.00
             3417.00,977.00 3417.00,1021.00 3417.00,1021.00
             3417.00,1023.30 3417.38,1027.41 3415.40,1028.98
             3413.60,1030.40 3407.41,1030.00 3405.00,1030.00
             3387.44,1030.00 3385.16,1031.62 3385.00,1023.00
             3385.00,1023.00 3385.00,929.00 3385.00,929.00
             3385.00,926.70 3384.62,922.59 3386.60,921.02
             3388.76,919.31 3403.45,919.99 3407.00,920.00
             3408.99,920.00 3412.81,919.77 3414.40,921.02
             3416.27,922.50 3415.97,925.86 3416.00,928.00
             3422.68,925.45 3426.15,921.78 3434.00,919.44
             3438.36,918.14 3440.53,918.02 3445.00,918.00
             3461.89,917.92 3474.23,918.97 3485.00,934.00 Z
           M 758.31,980.60
           C 763.15,979.43 777.20,980.00 783.00,980.00
             783.00,980.00 831.00,980.00 831.00,980.00
             831.00,980.00 985.00,980.00 985.00,980.00
             985.00,980.00 1476.00,980.00 1476.00,980.00
             1476.00,980.00 2517.00,980.00 2517.00,980.00
             2517.00,980.00 3038.00,980.00 3038.00,980.00
             3042.71,980.01 3046.46,979.20 3046.94,985.02
             3047.79,995.27 3042.19,993.00 3026.00,992.96
             3026.00,992.96 2954.00,992.96 2954.00,992.96
             2954.00,992.96 2646.00,992.96 2646.00,992.96
             2646.00,992.96 1332.00,992.96 1332.00,992.96
             1332.00,992.96 897.00,992.96 897.00,992.96
             897.00,992.96 786.00,992.96 786.00,992.96
             786.00,992.96 759.15,992.96 759.15,992.96
             754.52,991.32 755.26,983.17 758.31,980.60 Z
           M 3089.00,992.32
           C 3096.23,991.54 3102.56,992.52 3107.79,998.10
             3116.66,1007.57 3113.88,1024.75 3102.00,1030.43
             3098.61,1032.05 3094.69,1032.09 3091.00,1031.98
             3079.04,1031.65 3073.00,1023.35 3073.00,1012.00
             3073.00,1007.27 3073.22,1004.12 3075.97,1000.04
             3079.20,995.23 3083.60,993.55 3089.00,992.32 Z" />
</svg>
